<svg id="Group_3399" data-name="Group 3399" xmlns="http://www.w3.org/2000/svg" width="115.689" height="28.216" viewBox="0 0 115.689 28.216">
  <g id="Group_3396" data-name="Group 3396" transform="translate(0 0)">
    <path id="Path_10652" data-name="Path 10652" d="M-215.076,354.649a19.779,19.779,0,0,1-1.837,3.477c-1.258,1.838-3,4.06-5.025,4.06-1.933,0-2.417-1.159-4.93-1.159s-3.092,1.159-4.926,1.159c-2.127,0-3.77-2.028-4.93-3.866-3.382-5.025-3.771-11.015-1.643-14.205a7.344,7.344,0,0,1,5.993-3.477c2.219,0,3.573,1.159,5.506,1.159,1.739,0,2.8-1.159,5.414-1.159a7.184,7.184,0,0,1,5.506,2.8,6.137,6.137,0,0,0,.873,11.209Z" transform="translate(239.682 -333.97)" fill="#113981"/>
    <path id="Path_10653" data-name="Path 10653" d="M-231.179,343.322a6.051,6.051,0,0,0,1.353-4.64A6.93,6.93,0,0,0-234.172,341a5.667,5.667,0,0,0-1.452,4.445,5.5,5.5,0,0,0,4.445-2.124Z" transform="translate(249.307 -338.682)" fill="#113981"/>
  </g>
  <g id="Group_3394" data-name="Group 3394" transform="translate(36.171 6.614)">
    <path id="Path_10654" data-name="Path 10654" d="M-223.987,344.308c.224.668.334,1.226.558,2.008l1.336,3.674h-3.674l1.226-3.787a9.528,9.528,0,0,0,.554-1.894Zm-1.112-2.338L-230,356h2.228l1.446-4.345h4.679l1.56,4.345h2.224l-4.9-14.034Z" transform="translate(229.998 -341.746)" fill="#113981"/>
    <path id="Path_10655" data-name="Path 10655" d="M-221.811,344.689c2,0,2.786,1.67,2.786,3.454,0,2.228-1,3.673-2.786,3.673a2.741,2.741,0,0,1-2.562-2,1.427,1.427,0,0,1-.11-.668V347.36c0-.11.11-.334.11-.444v-.224a2.709,2.709,0,0,1,2.562-2Zm.558-1.784a4.4,4.4,0,0,0-3.454,1.56v-1.336h-2v.114a27.5,27.5,0,0,1,.11,3.23v10.8h2.118v-5.009a3.936,3.936,0,0,0,3.006,1.222,4.457,4.457,0,0,0,3.23-1.336,6.159,6.159,0,0,0,1.45-4.121,5.631,5.631,0,0,0-1.226-3.674,4.171,4.171,0,0,0-3.23-1.45Z" transform="translate(239.628 -339.008)" fill="#113981"/>
    <path id="Path_10656" data-name="Path 10656" d="M-218.976,344.689c1.894,0,2.782,1.67,2.782,3.454,0,2.228-1.112,3.673-2.9,3.673a2.745,2.745,0,0,1-2.562-2v-2.9c0-.11.114-.11.114-.224a2.611,2.611,0,0,1,2.562-2Zm.554-1.784a4.239,4.239,0,0,0-3.45,1.56l-.114-1.336h-1.89v14.144h2.224v-5.009a3.705,3.705,0,0,0,2.9,1.222,4.277,4.277,0,0,0,3.23-1.336,5.637,5.637,0,0,0,1.45-4.121,5.076,5.076,0,0,0-1.226-3.674,3.8,3.8,0,0,0-3.12-1.45Z" transform="translate(247.932 -339.008)" fill="#113981"/>
    <path id="Path_10657" data-name="Path 10657" d="M-215.156,348.152c-2-.782-2.562-1.45-2.562-2.562,0-.892.672-1.894,2.452-1.894a4.981,4.981,0,0,1,2.452.668l.22.11.558-1.78-.11-.114a7.46,7.46,0,0,0-3.12-.668c-2.672,0-4.675,1.674-4.675,3.9,0,1.894,1.222,3.12,3.784,4.011,1.894.778,2.562,1.446,2.562,2.562,0,1.336-1.112,2.228-2.782,2.228a5.979,5.979,0,0,1-3.12-.892l-.11-.11-.668,1.78.11.114a7.5,7.5,0,0,0,3.674.888c3.677,0,5.013-2.228,5.013-4.117,0-2.008-1-3.119-3.678-4.121Z" transform="translate(258.476 -341.913)" fill="#113981"/>
    <path id="Path_10658" data-name="Path 10658" d="M-214.305,342.339l-2.118.668v1.78h-1.556v1.67h1.556v5.237a3.658,3.658,0,0,0,.782,2.672,2.52,2.52,0,0,0,2,.778,4.44,4.44,0,0,0,1.67-.22l.114-.114-.114-1.67-.11.114a2.8,2.8,0,0,1-1,.11c-.892,0-1.226-.558-1.226-1.784v-5.123h2.562v-1.67h-2.562Z" transform="translate(265.201 -340.665)" fill="#113981"/>
    <path id="Path_10659" data-name="Path 10659" d="M-211.212,344.579c1.89,0,2.782,1.894,2.782,3.564,0,2.114-1.226,3.673-2.9,3.673h0c-1.67,0-2.782-1.56-2.782-3.564,0-1.894.888-3.673,2.9-3.673Zm0-1.674a5.032,5.032,0,0,0-5.123,5.347c0,3.12,2,5.233,5.009,5.233h0a5.018,5.018,0,0,0,5.123-5.343,5.316,5.316,0,0,0-1.446-3.788,4.551,4.551,0,0,0-3.564-1.45Z" transform="translate(270.016 -339.008)" fill="#113981"/>
    <path id="Path_10660" data-name="Path 10660" d="M-208.1,343.019l-.114-.114h-.554a3.113,3.113,0,0,0-2.676,1.674l-.11-1.45h-1.894v.114c0,.888.11,1.78.11,3.116v6.907h2.118v-6.239a2.576,2.576,0,0,1,2.338-2.114h.558l.224.11Z" transform="translate(278.484 -339.008)" fill="#113981"/>
    <path id="Path_10661" data-name="Path 10661" d="M-207.408,344.465a2.206,2.206,0,0,1,1.56.558,2.88,2.88,0,0,1,.778,2h-4.9a2.754,2.754,0,0,1,2.562-2.562Zm.114-1.56c-2.786,0-4.789,2.228-4.789,5.457a4.764,4.764,0,0,0,5.009,5.123,7.759,7.759,0,0,0,3.454-.668h.11l-.444-1.67-.11.11a7.759,7.759,0,0,1-2.676.448,2.88,2.88,0,0,1-3.23-3.006h6.907v-.114a2.2,2.2,0,0,0,.11-.892c0-2.228-1.112-4.789-4.341-4.789Z" transform="translate(282.47 -339.008)" fill="#113981"/>
  </g>
</svg>
