<svg xmlns="http://www.w3.org/2000/svg" width="35" height="30.701" viewBox="0 0 35 30.701">
  <g id="Group_149" data-name="Group 149" transform="translate(-80.444 -504.154)">
    <path id="Forma_1" data-name="Forma 1" d="M161.953,176.244c-.219-1.391-1.055-7.254-1.137-10.558.014-1.4-.3-2.313-.926-2.707a1.59,1.59,0,0,0-1.712.119,2.693,2.693,0,0,0-.984,1.226l-.151-.258c-.228-.389-.457-.789-.679-1.175-.521-.91-1.061-1.852-1.647-2.746l-.234-.357a15.686,15.686,0,0,0-2.285-3.019,2.006,2.006,0,0,0-2.182-.434,1.627,1.627,0,0,0-.669.631q-.049-.025-.1-.048a2.169,2.169,0,0,0-2.141.177,1.9,1.9,0,0,0-.694,1.641,2.6,2.6,0,0,0-1.005,1.03,3.719,3.719,0,0,0-.261,2.532,3.169,3.169,0,0,0-.619.962,3.179,3.179,0,0,0-.62-.962,3.72,3.72,0,0,0-.261-2.532,2.6,2.6,0,0,0-1.005-1.03,1.891,1.891,0,0,0-.694-1.641,2.169,2.169,0,0,0-2.141-.177q-.052.023-.1.048a1.627,1.627,0,0,0-.669-.631,2.006,2.006,0,0,0-2.182.434,15.712,15.712,0,0,0-2.285,3.019l-.234.357c-.587.9-1.127,1.838-1.649,2.749-.221.385-.449.784-.676,1.172l-.151.258a2.692,2.692,0,0,0-.984-1.226,1.588,1.588,0,0,0-1.712-.119c-.628.394-.94,1.3-.926,2.707-.081,3.3-.918,9.166-1.137,10.558a5,5,0,0,0,.171,2.375,43.571,43.571,0,0,0,3.566,6.536l-1.084-3.955a19.718,19.718,0,0,1-1.522-2.939,3.868,3.868,0,0,1-.129-1.836c.223-1.41,1.07-7.361,1.152-10.721v-.02c-.015-1.381.32-1.7.423-1.764.228-.143.586.057.69.122a2.793,2.793,0,0,1,.885,1.62,29.651,29.651,0,0,1,.73,9.107c1.572-.339,3.089.862,4.112,2.026-.864-1.119-2.312-2.506-3.779-2.407a29.69,29.69,0,0,0-.164-8.51.5.5,0,0,0,.03-.044l.2-.337c.176-.3.334-.576.494-.848.231-.393.461-.794.683-1.182.514-.9,1.046-1.825,1.615-2.693l.235-.36a16.147,16.147,0,0,1,2.067-2.776,1.1,1.1,0,0,1,1.137-.314c.2.1.472.43.165,1.907-.67,3.221-2.49,6.135-4.072,8.925,1.823-2.672,4.924-6.377,5.141-9.972a1.065,1.065,0,0,1,.345-.254,1.233,1.233,0,0,1,1.174.055.789.789,0,0,1,.266.715c0,.075-.022.218-.033.29,0,.005,0,.01,0,.016h0a38.68,38.68,0,0,1-3.4,9.282,40.074,40.074,0,0,0,3.923-8.622c.373.183,1.215.815.738,2.692,0,.005,0,.011,0,.016a46.075,46.075,0,0,1-2.4,6.889,47.151,47.151,0,0,0,2.829-6.1,3.363,3.363,0,0,1,.607,1.684c.041.98-.22,3.247-2.414,7.455a3.1,3.1,0,0,0,.325,3.129,6.928,6.928,0,0,1,.825,2.356c.216,1.7-1.368,4.467-1.368,4.467l-1.345,4.614c1.565-2.665,3.969-7.27,3.719-9.229a7.982,7.982,0,0,0-.939-2.729c-.483-.952-.682-1.4-.33-2.077a26.093,26.093,0,0,0,2.169-5.323,26.1,26.1,0,0,0,2.17,5.324c.352.675.153,1.124-.33,2.077a7.985,7.985,0,0,0-.939,2.729c-.251,1.959,2.154,6.564,3.719,9.229l-1.3-4.667c-.878-2.52-1.626-2.717-1.409-4.414a6.92,6.92,0,0,1,.825-2.356,3.107,3.107,0,0,0,.325-3.129c-2.193-4.207-2.455-6.474-2.414-7.455a3.364,3.364,0,0,1,.607-1.684,47.144,47.144,0,0,0,2.829,6.1,46.074,46.074,0,0,1-2.4-6.889c0-.005,0-.011,0-.016-.478-1.882.369-2.513.738-2.692a40.118,40.118,0,0,0,3.924,8.623,51.4,51.4,0,0,1-3.438-9.587.739.739,0,0,1,.266-.716,1.232,1.232,0,0,1,1.174-.055,1.07,1.07,0,0,1,.345.253c.218,3.595,3.318,7.3,5.141,9.973-1.675-2.956-4.242-6.678-4.236-10.311h0a.627.627,0,0,1,.331-.521,1.106,1.106,0,0,1,1.137.314,16.14,16.14,0,0,1,2.067,2.775l.235.36c.568.866,1.1,1.793,1.613,2.689.223.389.454.792.685,1.186.156.266.311.533.482.828l.207.357c.009.015.019.029.03.044a29.693,29.693,0,0,0-.165,8.51c-1.467-.1-2.916,1.288-3.779,2.407,1.023-1.164,2.54-2.365,4.112-2.026a29.649,29.649,0,0,1,.73-9.105,2.8,2.8,0,0,1,.885-1.621c.1-.065.462-.265.69-.122.1.064.438.382.423,1.764v.02c.081,3.367.929,9.313,1.151,10.722a3.867,3.867,0,0,1-.129,1.836A13.034,13.034,0,0,1,159.575,181l-1.359,4.155a43.571,43.571,0,0,0,3.566-6.536A5.008,5.008,0,0,0,161.953,176.244Z" transform="translate(-46.58 347.984)" fill="#4abd97" fill-rule="evenodd"/>
  </g>
</svg>
