<svg xmlns="http://www.w3.org/2000/svg" width="216.4" height="66.098" viewBox="0 0 216.4 66.098">
  <path id="Union_13" data-name="Union 13" d="M3361.458,723.228c-3.579-.461-8.026-1.255-10.737-1.84-3.9-.818-6.669-1.412-8.543-1.827-6.57-1.064-8.877-1.177-12.04-1.53q-13.146-1.466-26.413-1.948a216.3,216.3,0,0,0-34.745,1.574c-7.463.928-14.921,1.909-22.435,2.567-5.476.464-10.993.672-16.519.623-6.45-.041-12.933-.289-19.357-.749a157.354,157.354,0,0,1-28.095-4.1c-1.362-.356-2.659-.854-3.985-1.281,8.505,2.062,17.275,2.427,26.006,2.77,7.044.278,14.109.4,21.153.328a261.656,261.656,0,0,0,38.652-3.093,177.7,177.7,0,0,1,39.583-1.479c13.5.876,36.575,5.427,45.048,7.4.5.1.995.206,1.466.305a12.714,12.714,0,0,0,2.648.443c5.51,1.123,20.37,2.533,23.494-11.059a6.273,6.273,0,0,0-1.832-5.031,7.8,7.8,0,0,0-5.729-2.136,14.048,14.048,0,0,0-6.8,1.654,6.748,6.748,0,0,1-1.451-4.2,4.67,4.67,0,0,1,1.144-3.308c.765-.689,1.834-.758,3.744-.758a10.837,10.837,0,0,0,6.187-1.516c1.6-1.1,2.6-2.894,2.6-5.651,0-4.067-2.9-5.307-6.34-5.307-3.59,0-6.188,1.861-8.632,4.618-2.826-1.861-3.59-4-3.59-5.307,0-1.861,1.758-2.964,2.9-3.721,2.979-1.93,7.027-2.343,10.618-2.343a18.166,18.166,0,0,1,10.389,3.032,10.662,10.662,0,0,1,4.506,8.891c0,4.755-2.215,7.649-6.721,10.131,5.27,1.861,8.4,5.858,8.4,11.578,0,4.411-2.339,7.1-5.623,9.516-2.689,1.98-11.182,2.9-16.22,2.9A22.639,22.639,0,0,1,3361.458,723.228Zm-41.115-18.895a14.69,14.69,0,0,1-5.271-11.1,15.836,15.836,0,0,1,5.118-11.578,18.791,18.791,0,0,1,13.063-4.755,19.2,19.2,0,0,1,13.214,4.686,15.057,15.057,0,0,1-.611,22.743,19.582,19.582,0,0,1-12.68,4.755A19.229,19.229,0,0,1,3320.344,704.333Zm6.568-17.436a9.4,9.4,0,0,0-1.909,5.858,9.133,9.133,0,0,0,1.909,5.858,7.77,7.77,0,0,0,6.341,2.619,8.215,8.215,0,0,0,6.493-2.619,8.719,8.719,0,0,0,1.986-5.789,9.02,9.02,0,0,0-1.986-6,8.216,8.216,0,0,0-6.493-2.619A7.8,7.8,0,0,0,3326.912,686.9Zm-77.99,20.331a10.307,10.307,0,0,1-.841-2.137A14.2,14.2,0,0,1,3238,708.675a12.52,12.52,0,0,1-8.708-2.964,9.372,9.372,0,0,1-2.979-7.1c0-6.134,4.659-10.269,12.6-10.338a64.274,64.274,0,0,1,9.473,1.034l.076-1.172c.229-3.239-3.057-4.893-7.333-4.893-4.736,0-6.8,1.033-9.319,3.653-2.673-.758-3.972-2.688-3.972-4.686,0-1.792.382-2.412,1.3-3.17,3.055-2.481,7.256-2.826,11.916-2.826,5.881,0,10.236,1.792,12.832,4.066a11.264,11.264,0,0,1,3.667,8.753v8.408c0,4.755,1.145,7.512,2.6,9.718-.839.758-3.819,1.516-6.569,1.516C3251.52,708.675,3249.763,708.468,3248.923,707.228Zm-13.062-8.891c0,2.412,2.063,3.239,4.431,3.239a10.956,10.956,0,0,0,7.333-2.619l.3-3.584a49.1,49.1,0,0,0-6.34-.482C3237.542,694.96,3235.861,696.063,3235.861,698.337Zm61.948,5.238.611-6.34.994-7.305c-1.6,2.757-6.264,11.165-7.256,13.3a8.755,8.755,0,0,1-3.972.689,9.031,9.031,0,0,1-3.972-.62c-1.222-2.205-5.5-10.614-7.1-13.163l.841,7.1.228,4.135c.076,1.241.076,2.481.076,3.791,0,2.343-.3,3.239-5.117,3.239-2.521,0-5.653-.276-6.571-1.034,1.452-1.792,1.681-3.722,1.91-6,.076-1.034.153-2.481.153-13.025,0-1.516,0-7.719-1.146-9.511a16.079,16.079,0,0,1,5.8-.965,14.737,14.737,0,0,1,3.9.482,2.738,2.738,0,0,1,1.069.965l10.159,16.471,9.4-16.333a3.092,3.092,0,0,1,1.146-1.171A11.492,11.492,0,0,1,3303,677.8a15.392,15.392,0,0,1,5.958,1.034c-1.07,1.447-1.222,4.824-1.222,8.684V696.2c.077,4.686.459,8.2,1.986,11.1-.993.827-3.59,1.172-6.109,1.172C3298.42,708.468,3297.428,707.5,3297.81,703.575Zm-92.656.069c0-2.826.993-6.2.993-14.4v-3.791h-24.291v3.239c0,5.513.382,13.37,2.674,17.918-1.146.758-5.27,1.516-8.021,1.516-3.514,0-6.569-.482-6.569-4,0-3.308,1.069-7.305,1.069-14.4V668.909c0-3.17-.3-8.615-1.375-10.476a19.929,19.929,0,0,1,6.95-1.172c4.05,0,5.5,1.034,5.5,5.1,0,1.447-.23,3.377-.23,5.444v9.373h24.291v-8.27c0-3.17-.153-7.788-1.375-10.476a19.93,19.93,0,0,1,6.952-1.172c3.9,0,5.575,1.379,5.575,5.238,0,1.1-.306,3.239-.306,6.409v19.779c0,6.892.382,13.025,2.75,17.918-1.3.758-4.431,1.516-8.02,1.516C3207.751,708.123,3205.154,707.5,3205.154,703.644Z" transform="translate(-3169.635 -657.262)" fill="#00aeef"/>
</svg>
