<svg xmlns="http://www.w3.org/2000/svg" width="16.895" height="27.804" viewBox="0 0 16.895 27.804">
  <path id="Path_18795" data-name="Path 18795" d="M16.824,311.642c-2.874-.274-5.964-.424-9.182-.424-2.624,0-5.163.1-7.569.285A1.616,1.616,0,0,1,.3,310.81a10.736,10.736,0,0,1,2.331-1.594c.1-.1.074-.212-.06-.246a2.077,2.077,0,0,1-.745-.446c-2.39-1.72-1.749-5.308-1.75-6.058,0-.947.232-1.869.231-2.815,0-1.049-.231-2.122-.234-3.171a8.218,8.218,0,0,1,2.359-5.75h0c.044-.006.1-.09.113-.148a7.163,7.163,0,0,1,.187-.871c.042-.117.064-.245.105-.365a.658.658,0,0,1,.361-.4c.281-.117.572.048,1.124.432h0a1.866,1.866,0,0,0-.8-.66.181.181,0,0,1-.028-.161.915.915,0,0,0,.017-.636c-.067-.254-.145-.506-.22-.758-.014-.046-.048-.085-.062-.131-.085-.273-.167-.548-.25-.822-.032-.1-.071-.207-.095-.313a.167.167,0,0,1,.128-.22,27.972,27.972,0,0,1,5-1.83c.113-.029.195-.013.222.1.08.336.166.672.23,1.012a.573.573,0,0,1-.074.263.536.536,0,0,0,.1.589c.042.059.145.167.2.245.168.256.4.319.448.635a.386.386,0,0,1-.083.266.674.674,0,0,1-.216.2.206.206,0,0,0-.134.255.458.458,0,0,1-.132.549.2.2,0,0,0-.026.167.257.257,0,0,1-.109.3.435.435,0,0,0-.2.365c0,.09-.015.18-.018.27a.423.423,0,0,1-.439.466.748.748,0,0,1-.586-.131c-.035-.032-.148-.011-.2.026a.3.3,0,0,0-.149.263.205.205,0,0,1-.042.1c-.1.169-.205.334-.3.5-.078.135-.042.218.094.294a.209.209,0,0,1,.1.145c0,.438,0,.877-.007,1.316.019.306-.087.325-.225.21a2.1,2.1,0,0,0-.608-.328h0c-.1.14-.056.133.069.231h0a6.181,6.181,0,0,1,2.065,4.359c.007.183.021.293-.112.406-.206.176-.4.365-.6.555a4.371,4.371,0,0,0-.409.5h0c.027.008,3.515-1.989,4.516-1.9.151.018.217-.039.28-.18.122-.271.273-.529.383-.805a2.468,2.468,0,0,1,.693-.832,2.661,2.661,0,0,1,.243-.168q.416-.32.828-.646a.956.956,0,0,0,.135-.13.141.141,0,0,1,.2-.035c.031.021.038.11.026.16a1.9,1.9,0,0,1-.6.986,2.2,2.2,0,0,0-.221.236.194.194,0,0,0,.1.3.274.274,0,0,0,.288-.053,2.331,2.331,0,0,1,.234-.184,2.052,2.052,0,0,0,.57-.748c.106-.211.189-.437.312-.637a1.559,1.559,0,0,1,.349-.377c.048-.039.208-.027.225.009.04.085.091.258-.129.979-.923,2.648-2.919,3.308-3.014,3.147a1.165,1.165,0,0,0-.207-.158l.041.059a2.235,2.235,0,0,1,.218.821.972.972,0,0,1-.405.8c-.188.159-6.646,3.935-7.5,3.7-.349-.075-.651-.618-.869-1.143s-.353-1.033-.367-1.04a7.763,7.763,0,0,0,.222,1.2c.17.621.459,1.284.935,1.456a7.131,7.131,0,0,0,2.994-1.1,18.51,18.51,0,0,1,1.481,1.627l-.144.1-.143.1a5.709,5.709,0,0,0-1.789,2.593h0a3.972,3.972,0,0,1-2.244,2.542,3.266,3.266,0,0,0,2.244-1.737c.381-1.025,1.295-3.407,2.65-3.345h0c3.041.9,4.912,1.465,6.024,2.3C16.843,306.955,17.028,308.452,16.824,311.642Z" transform="translate(0.002 -283.838)" fill="#fff"/>
</svg>
