<svg id="Group_3398" data-name="Group 3398" xmlns="http://www.w3.org/2000/svg" width="128.218" height="27.055" viewBox="0 0 128.218 27.055">
  <path id="Path_10621" data-name="Path 10621" d="M-252.522,343.6a2.483,2.483,0,0,0-2.118.778,4.689,4.689,0,0,0-.554,2.452v.334a5.821,5.821,0,0,0,.554,2.786,3.063,3.063,0,0,0,2.118.778,2.194,2.194,0,0,0,1.894-1,4.153,4.153,0,0,0,.668-2.562,4.513,4.513,0,0,0-.668-2.672,2.383,2.383,0,0,0-1.894-.892Zm.224,8.239a3.714,3.714,0,0,1-1.674-.334,2.694,2.694,0,0,1-1.222-1h-.114c0,.558.114,1.116.114,1.56v3.787h-1.45V342.594h1.112l.224,1.222h.114a3.884,3.884,0,0,1,1.222-1.112,6.825,6.825,0,0,1,1.674-.224,3.155,3.155,0,0,1,2.782,1.226,5.119,5.119,0,0,1,1,3.454,5.326,5.326,0,0,1-1,3.453,3.289,3.289,0,0,1-2.782,1.222Z" transform="translate(354.903 -331.981)" fill="#113981"/>
  <rect id="Rectangle_1555" data-name="Rectangle 1555" width="1.336" height="12.919" transform="translate(108.283 6.825)" fill="#113981"/>
  <path id="Path_10622" data-name="Path 10622" d="M-250.1,350.723a3.221,3.221,0,0,0,2.114-.668,2.718,2.718,0,0,0,.668-2v-.782h-1.336a4.7,4.7,0,0,0-2.452.558,1.546,1.546,0,0,0-.778,1.336,1.6,1.6,0,0,0,.558,1.226,1.781,1.781,0,0,0,1.226.334Zm3.23,1-.334-1.336h-.114a4.46,4.46,0,0,1-1.336,1.226,6.8,6.8,0,0,1-1.67.22,3.317,3.317,0,0,1-2.228-.668,2.762,2.762,0,0,1-.778-2c0-1.78,1.556-2.786,4.565-2.9h1.56v-.558a2.513,2.513,0,0,0-.558-1.67c-.224-.334-.782-.444-1.45-.444a6.67,6.67,0,0,0-2.672.668l-.334-1a3.266,3.266,0,0,1,1.45-.558,4.3,4.3,0,0,1,1.67-.224,3.784,3.784,0,0,1,2.448.668,3.246,3.246,0,0,1,.782,2.342v6.235Z" transform="translate(364.619 -331.981)" fill="#113981"/>
  <path id="Path_10623" data-name="Path 10623" d="M-251.23,342.509h1.56l2,5.233a14.726,14.726,0,0,1,.782,2.562h.11c.11-.334.224-.782.444-1.45s1.006-2.782,2.342-6.345h1.446l-4.008,10.357a4.788,4.788,0,0,1-1.336,2.228,3.036,3.036,0,0,1-1.894.668,5.434,5.434,0,0,1-1.336-.224v-1.112a3.465,3.465,0,0,0,1.112.11,2.207,2.207,0,0,0,2-1.56l.558-1.336Z" transform="translate(370.761 -331.896)" fill="#113981"/>
  <path id="Path_10624" data-name="Path 10624" d="M-257.637,348.1a1.936,1.936,0,0,0,.558-1.336c0-1.446-.892-3.564-2.452-3.564a1.588,1.588,0,0,0-1.336.668,1.944,1.944,0,0,0-.444,1.336c0,1.336.778,3.454,2.448,3.454a1.6,1.6,0,0,0,1.226-.558Zm-.558,3.677c-.11-.114-.22-.114-.444-.114a12.01,12.01,0,0,0-2,.334c-.448.224-1.674.672-1.674,2.008s1.34,2.338,3.453,2.338c1.784,0,2.786-.892,2.786-2.118,0-1-.558-1.446-2.118-2.448Zm1.45-8.467a3.123,3.123,0,0,1,1.336,2.562,3.188,3.188,0,0,1-1.67,2.676,1.359,1.359,0,0,0-.448.888,1.149,1.149,0,0,0,.448.892l.668.558a3.187,3.187,0,0,1,1.67,2.672c0,1.784-1.784,3.564-5.123,3.564-2.786,0-4.121-1.336-4.121-2.782a2.629,2.629,0,0,1,1.45-2.228,7.434,7.434,0,0,1,3.787-.892,1.942,1.942,0,0,1-.672-1.336,1.637,1.637,0,0,1,.224-.782c-.224,0-.444.114-.668.114a3.019,3.019,0,0,1-3.12-3.01,3.156,3.156,0,0,1,1.226-2.562,5.334,5.334,0,0,1,3.454-1.112h4.008l-1.336.778Z" transform="translate(333.399 -331.814)" fill="#113981"/>
  <path id="Path_10625" data-name="Path 10625" d="M-259.325,350.055a3.349,3.349,0,0,0,.558-2.118c0-1.67-.778-4.9-3.12-4.9a3.148,3.148,0,0,0-1.78.668,2.849,2.849,0,0,0-.892,2.338c0,1.894.892,5.013,3.23,5.013a2.7,2.7,0,0,0,2-1Zm-2.448,1.56a4.516,4.516,0,0,1-4.679-4.455,4.79,4.79,0,0,1,5.013-4.679,4.491,4.491,0,0,1,4.565,4.455,4.682,4.682,0,0,1-4.9,4.679Z" transform="translate(326.176 -331.981)" fill="#113981"/>
  <path id="Path_10626" data-name="Path 10626" d="M-261.989,350.055a3.372,3.372,0,0,0,.554-2.118c0-1.67-.778-4.9-3.116-4.9a3.171,3.171,0,0,0-1.784.668,2.861,2.861,0,0,0-.892,2.338c0,1.894.892,5.013,3.23,5.013a2.709,2.709,0,0,0,2.008-1Zm-2.452,1.56a4.515,4.515,0,0,1-4.675-4.455,4.787,4.787,0,0,1,5.009-4.679,4.419,4.419,0,0,1,4.566,4.455,4.682,4.682,0,0,1-4.9,4.679Z" transform="translate(318.373 -331.981)" fill="#113981"/>
  <path id="Path_10627" data-name="Path 10627" d="M-259.521,354.517l-2.786.668a32,32,0,0,1-3.23.334c-5.343,0-7.351-3.9-7.351-6.907,0-3.784,2.9-7.237,7.8-7.237a12.152,12.152,0,0,1,3.006.444,7.667,7.667,0,0,1,2.562,1.226l-1.67,1.446-.668.224.558-.778a5.586,5.586,0,0,0-4.235-1.784,5.268,5.268,0,0,0-5.343,5.571,6.882,6.882,0,0,0,6.9,7.013,5.955,5.955,0,0,0,2.452-.444v-3.12l-2.9.114,1.56-.782h4.118l-.554.448c-.114.11-.114.22-.224.334v3.229Z" transform="translate(307.328 -335.218)" fill="#113981"/>
  <path id="Path_10628" data-name="Path 10628" d="M-257.512,354.208c-.668,0-.782-.11-.782-.892V342.4c.114-.668.224-.778.892-1.112h-2.782l-1.45.668h1.45v11.806c0,.334-.114.444-.558,1h3.454l.778-.448a3.12,3.12,0,0,1-1-.11Z" transform="translate(340.291 -335.467)" fill="#113981"/>
  <path id="Path_10629" data-name="Path 10629" d="M-255.234,345.266c.444-.11.668-.224.668-.558a1.979,1.979,0,0,0-2.008-1.56,2.308,2.308,0,0,0-2.228,2.562c0,.334.114.668.114,1Zm1.89,5.681-.668.334a6.253,6.253,0,0,1-1.894.334,3.858,3.858,0,0,1-2.558-.782,4.788,4.788,0,0,1-1.894-4.007,4.265,4.265,0,0,1,4.341-4.345,4.158,4.158,0,0,1,2,.558,2.75,2.75,0,0,1,1.34,1.894l-4.569,1.78-1.446.114c.444,2.448,2.114,3.787,4.008,3.787a4.856,4.856,0,0,0,2.342-.668Z" transform="translate(344.028 -331.981)" fill="#113981"/>
  <path id="Path_10630" data-name="Path 10630" d="M-257.7,342.592v1.225h-.111v-1.225h-.445v-.111h1v.111Z" transform="translate(350.171 -331.981)" fill="#113981"/>
  <path id="Path_10631" data-name="Path 10631" d="M-256.917,343.817v-1.225h0l-.446,1.225h-.111l-.334-1.225h0v1.225h-.111V342.48h.223l.334,1.114h0l.334-1.114h.223v1.337Z" transform="translate(351.167 -331.981)" fill="#113981"/>
  <path id="app" d="M33.907,10.945,15.445.392A2.974,2.974,0,0,0,11,2.974V24.08a2.974,2.974,0,0,0,4.45,2.582L33.907,16.109a2.974,2.974,0,0,0,0-5.164Zm-20.055,14.3a1.16,1.16,0,0,1-.471-.148A1.174,1.174,0,0,1,12.8,24.08V2.974a1.165,1.165,0,0,1,1.052-1.163l8.411,11.716Zm3.456-1.721,6.063-8.446L25.907,18.6Zm15.7-8.976L27.481,17.7l-3-4.177,3-4.177,5.531,3.162a1.17,1.17,0,0,1,0,2.032Z" transform="translate(-10.995 0)" fill="#113981"/>
</svg>
