<svg xmlns="http://www.w3.org/2000/svg" width="35" height="32.241" viewBox="0 0 35 32.241">
  <g id="Group_147" data-name="Group 147" transform="translate(2.47 -6.352)">
    <path id="Path_1463" data-name="Path 1463" d="M464.115,693.482c-1.42-2.19-10.967-2.093-10.967-2.093s5.215.662,4.673,1.809c-.6,1.269-7.927,1.668-13.825,1.091s-4.725-2,1.849-2.948c0,0-10,.082-11.23,1.955s5.515,3.54,14.6,3.69S465.064,694.945,464.115,693.482Z" transform="translate(-434.098 -658.399)" fill="#b375dc"/>
    <g id="Group_148" data-name="Group 148" transform="translate(-2.47 6.352)">
      <path id="Path_1470" data-name="Path 1470" d="M864.677,131.336a15.947,15.947,0,0,1-3.322-.312.428.428,0,0,0-.287.086q-2.216,1.568-4.425,3.145a.694.694,0,0,1-.872.017.686.686,0,0,1-.274-.8c.2-.737.423-1.47.638-2.2.183-.626.362-1.253.556-1.875.046-.147-.031-.186-.125-.246a9.229,9.229,0,0,1-2.9-2.778,6.528,6.528,0,0,1-1.009-2.649,6.394,6.394,0,0,1,1.54-5.109,10.949,10.949,0,0,1,4.565-3.185,15.5,15.5,0,0,1,3.547-.927,16.763,16.763,0,0,1,3.879-.1,14.7,14.7,0,0,1,6.133,1.847,9.366,9.366,0,0,1,3.65,3.515,6.14,6.14,0,0,1,.819,3.4,6.556,6.556,0,0,1-1.441,3.707,10.9,10.9,0,0,1-4.618,3.344,13.848,13.848,0,0,1-3.46.938c-.859.114-1.726.166-2.589.245Zm-.329-5.829c1.459,0,2.918,0,4.376,0a.721.721,0,0,0,0-1.442c-2.918,0-5.835,0-8.753.009a.841.841,0,0,0-.506.229.629.629,0,0,0-.139.77.69.69,0,0,0,.661.435Q862.17,125.511,864.348,125.508Zm.015-3.409c.763,0,1.525,0,2.288,0a.7.7,0,0,0,.676-.842.739.739,0,0,0-.8-.6c-.836,0-1.672,0-2.509,0-.622,0-1.244,0-1.866,0a.726.726,0,0,0-.779.754.7.7,0,0,0,.783.692Z" transform="translate(-852.591 -110.169)" fill="#b375dc"/>
      <path id="Path_1471" data-name="Path 1471" d="M1110.1,13.5a11.9,11.9,0,0,1,2.69-1.433,19.594,19.594,0,0,1,3.9-1.063,23.011,23.011,0,0,1,4.67-.306,22.627,22.627,0,0,1,3.986.486,18.53,18.53,0,0,1,3.331,1.034,11.9,11.9,0,0,1,4.337,2.947,6.541,6.541,0,0,1,1.629,3.138,5.759,5.759,0,0,1-.974,4.47,9.826,9.826,0,0,1-3.636,3.132.551.551,0,0,0-.342.579c.013,1.23,0,2.46-.009,3.69a2.144,2.144,0,0,1-.057.629.706.706,0,0,1-1.131.313q-1.915-1.648-3.814-3.313a.4.4,0,0,1-.068-.319c.072-.365.171-.725.26-1.087a16.385,16.385,0,0,0,.524-2.785,6.579,6.579,0,0,0-.263-2.216,9.13,9.13,0,0,0-3.068-4.564,14.111,14.111,0,0,0-5.266-2.735,17.808,17.808,0,0,0-3.233-.608,20.762,20.762,0,0,0-3.085-.032C1110.358,13.463,1110.23,13.486,1110.1,13.5Z" transform="translate(-1099.759 -10.684)" fill="#b375dc"/>
    </g>
  </g>
</svg>
