<svg id="Group_131" data-name="Group 131" xmlns="http://www.w3.org/2000/svg" width="40" height="29.748" viewBox="0 0 40 29.748">
  <path id="Path_1451" data-name="Path 1451" d="M132.082,204.81s.211,6.233.211,7.4,1.956-1.2,5.289-2.77a17.907,17.907,0,0,1,6.756-1.766,2.451,2.451,0,0,1,.934.161,17.866,17.866,0,0,0-6.889,2.007,20.582,20.582,0,0,0-6.756,6.624,37.536,37.536,0,0,0-2.889-3.172,12.268,12.268,0,0,0-1.378-1.083,11.625,11.625,0,0,1,2,.963c1.156.672,1.911,1.365,2,.642S132.082,204.81,132.082,204.81Z" transform="translate(-111.716 -199.42)" fill="#dabe50"/>
  <path id="Path_1452" data-name="Path 1452" d="M67.74,173.335a42.331,42.331,0,0,0-4.2-1.776,25.8,25.8,0,0,0-3.3-.813l4.733-9.816a11.338,11.338,0,0,1,5.034,1.475,7.368,7.368,0,0,1,2.867,3.614A9.575,9.575,0,0,0,69.24,162.8c-2.134-.9-3.466-1.265-4.067-.3-.539.866-3.266,6.625-3.466,7.2S64.441,170.595,67.74,173.335Z" transform="translate(-52.84 -160.93)" fill="#dabe50"/>
  <path id="Path_1453" data-name="Path 1453" d="M168.25,170.5a21.45,21.45,0,0,1,4.367-2.921c1-.493,2.917-1.043,3.567-.151,1.533,2.108,4.534,5.782,4.534,5.782l-4.367-7.166a6.784,6.784,0,0,0-4.1.9A12.347,12.347,0,0,0,168.25,170.5Z" transform="translate(-147.583 -165.383)" fill="#dabe50"/>
  <path id="Path_1454" data-name="Path 1454" d="M43.2,172.94s-4.767,9.726-4.834,9.816,3.6,1.054,7.767,2.981a29.206,29.206,0,0,1,6.467,3.944,47.945,47.945,0,0,1,7.1-5.149,30.036,30.036,0,0,1,7.366-3.282,1,1,0,0,1,1.033.392,46.816,46.816,0,0,0-9.234,4.1,45.5,45.5,0,0,0-6.433,4.637,54.8,54.8,0,0,0-7.767-4.336,56.542,56.542,0,0,0-7.5-2.589s4.5-8.942,4.834-9.515A2.124,2.124,0,0,1,43.2,172.94Z" transform="translate(-32.604 -171.465)" fill="#dabe50"/>
  <path id="Path_1455" data-name="Path 1455" d="M66.5,253.417a58.382,58.382,0,0,0-6.6-4.035,37.514,37.514,0,0,0-5.9-2.137s-.066-.542,1.766-.181A20.961,20.961,0,0,1,66.5,253.417Z" transform="translate(-47.365 -236.374)" fill="#dabe50"/>
  <path id="Path_1456" data-name="Path 1456" d="M171.5,243.283a62.772,62.772,0,0,1,7.366-5.089,24.141,24.141,0,0,1,5.767-2.168s-.3-.427-2.8.12C179.5,236.659,175.3,238.827,171.5,243.283Z" transform="translate(-150.434 -226.662)" fill="#dabe50"/>
  <path id="Path_1457" data-name="Path 1457" d="M8.489,185.6l-5.067,9.394a42.271,42.271,0,0,1,9.645,3.352,40.944,40.944,0,0,1,6.866,4.1,41.293,41.293,0,0,1,8.4-6.083,62.591,62.591,0,0,1,7.978-3.131l-5.067-7.387a5.663,5.663,0,0,1,2.134,1.446c1.244,1.205,6.622,8.23,6.622,8.23l-17.822,9.274,5.955,3.131s-1.623-2.489-1.266-2.65a4.208,4.208,0,0,1,1.445,0l4.422,7.046h-3.4L0,196s5.822-8.23,6.622-9.113A5.387,5.387,0,0,1,8.489,185.6Z" transform="translate(0 -182.57)" fill="#dabe50"/>
  <path id="Path_1458" data-name="Path 1458" d="M72.81,346.047l-7.089,5.54-3.312.06,2.777-7.207s1.217.023,1.356.522a8.721,8.721,0,0,1-.733,2.529l4.334-3.011Z" transform="translate(-54.744 -321.899)" fill="#dabe50"/>
</svg>
