<svg xmlns="http://www.w3.org/2000/svg" width="17" height="29" viewBox="0 0 17 29">
  <path id="Path_18794" data-name="Path 18794" d="M2202.725,26.7c-.074-.2-.125-.4-.211-.592a3.4,3.4,0,0,0-.348-.65,5.891,5.891,0,0,0-.688-.864c-.231-.213-.432-.462-.671-.665-.308-.261-1.6-1.126-1.923-1.32-.1-.059-.61-.345-.771-.425s-.334-.156-.5-.231c-.194-.087-.387-.178-.585-.255s-1.054-.372-1.281-.452c-.254-.089-.51-.174-.764-.263q-.29-.1-.579-.206c-.322-.117-.644-.234-.965-.354a.253.253,0,0,1-.094-.076c-.074-.086-.05-.121.072-.144a2.843,2.843,0,0,0,.367-.1,6.128,6.128,0,0,0,1.161-.5c.309-.183.625-.355.925-.552.251-.165.49-.353.725-.543.308-.249.612-.506.909-.768.314-.277.623-.561.926-.85a.723.723,0,0,0,.268-.584,4.827,4.827,0,0,0-.255-1.219,1.022,1.022,0,0,1-.062-.213.19.19,0,0,1,.056-.146c.222-.16.448-.315.678-.462.288-.185.584-.36.875-.544a.911.911,0,0,0,.226-.183c.127-.159.24-.329.354-.5a2.141,2.141,0,0,0,.177-.3,3.1,3.1,0,0,0,.247-.587c.081-.34.119-.69.178-1.036.021-.124-.06-.223-.18-.2a.536.536,0,0,0-.22.114,1.164,1.164,0,0,0-.326.554,1.355,1.355,0,0,1-.081.2,2.187,2.187,0,0,1-.714.806.231.231,0,0,1-.135.045c-.052,0-.132-.026-.144-.061a.22.22,0,0,1,.039-.165,1.1,1.1,0,0,1,.161-.17,1.5,1.5,0,0,0,.422-.728.61.61,0,0,0-.02-.2.533.533,0,0,0-.179.045,2.782,2.782,0,0,0-.218.2c-.378.324-.76.644-1.136.971a1.952,1.952,0,0,0-.417.685c-.07.144-.119.3-.186.443a.175.175,0,0,1-.237.1,1.013,1.013,0,0,0-.675.006,6,6,0,0,0-1.05.469,4.715,4.715,0,0,0-.4.249c-.139.089-.223.048-.238-.118-.037-.4-.055-.8-.115-1.2a19.653,19.653,0,0,0-.407-2.231c-.108-.4-.206-.8-.317-1.2a3.907,3.907,0,0,0-.165-.474c-.175-.414-.346-.829-.54-1.234-.162-.337-.365-.653-.528-.989-.192-.4-.37-.8-.539-1.207a7.523,7.523,0,0,1-.5-2.242,8.926,8.926,0,0,1,.147-1.728,16.24,16.24,0,0,0,.168,2c.075.317.1.648.191.959.135.458.308.9.469,1.354.054.151.115.3.18.447.089.2.189.391.278.59.061.138.136.184.282.144a.76.76,0,0,0,.147-.062.159.159,0,0,0,.085-.234,6.681,6.681,0,0,1,.558-4.392c0,.076-.886,2.6-.2,4.389.053.14.123.129.23.035a.922.922,0,0,0,.243-.437.227.227,0,0,1,.232-.183.239.239,0,0,0,.247-.2c.01-.034.027-.082.053-.093.138-.06.149-.184.172-.307a.283.283,0,0,1,.306-.258l.111,0a.179.179,0,0,0,.192-.172,5.405,5.405,0,0,0-.051-.662c-.031-.228-.09-.452-.121-.68a.392.392,0,0,1,.051-.212c.072-.138.16-.268.237-.4a.206.206,0,0,0-.1-.307c-.052-.023-.784-.168-.82-.189a3.65,3.65,0,0,1,.825-.074c.146.009.24-.051.224-.2a2.025,2.025,0,0,0-.4-1.235,5.684,5.684,0,0,0-.676-.659,3.749,3.749,0,0,0-.681-.36c-.15-.072-.312-.119-.463-.189a2.867,2.867,0,0,0-1-.254,3.378,3.378,0,0,0-1.481.121,5.829,5.829,0,0,0-.63.232,4.6,4.6,0,0,0-.6.407,5.617,5.617,0,0,0-1.428,1.579,7.2,7.2,0,0,0-.626,1.312,9.723,9.723,0,0,0-.292,1.062c-.069.285-.114.576-.167.865-.018.1-.027.2-.041.307-.067.521-.126,1.043-.206,1.562-.072.474-.168.943-.249,1.415-.07.415-.13.833-.2,1.248-.111.656-.232,1.309-.341,1.965-.08.485-.149.972-.219,1.459-.022.155-.031.313-.052.469-.076.532-.158,1.063-.231,1.6-.037.27-.052.544-.085.815-.082.673-.176,1.345-.25,2.019-.062.568-.107,1.137-.15,1.706-.039.528-.082,1.057-.093,1.586-.021.923-.025,1.847-.024,2.77a4.641,4.641,0,0,0,.068.7c.027.177.1.222.272.212a3.593,3.593,0,0,0,1.2-.276,3.529,3.529,0,0,0,1.175-.739,6.355,6.355,0,0,0,.645-.709,8.271,8.271,0,0,0,.532-.912c.145-.265.284-.534.4-.812s.226-.576.326-.868c.149-.432.288-.868.43-1.3.843-3.1,1.9-3.708,2.046-3.839a12.007,12.007,0,0,0-1.357,2.924c-.087.3-.168.6-.25.9-.074.275-.14.551-.215.826s-.156.555-.237.832c-.07.241-.138.483-.218.721a6.186,6.186,0,0,1-.236.611,14.12,14.12,0,0,1-1.328,2.032,2.8,2.8,0,0,1-.521.4,6.769,6.769,0,0,1-.793.38c-.162.067-.339.094-.506.148-.044.014-.1.06-.107.1s.05.082.083.119a.854.854,0,0,0,.079.058,1.954,1.954,0,0,0,.821.421,2.177,2.177,0,0,0,.828.058.054.054,0,0,1,.026,0,.092.092,0,0,1,.043.136.1.1,0,0,1-.02.023.647.647,0,0,1-.131.064c-.252.132-.5.268-.756.4a8.042,8.042,0,0,0-.781.4,2.4,2.4,0,0,0-.877.8,1.033,1.033,0,0,0-.12.644c0,.008,0,.016,0,.024,3.054-.292,6.348-.452,9.782-.452,2.24,0,4.42.068,6.514.2a.431.431,0,0,0,.031-.075,1.968,1.968,0,0,0,.118-.468A3.53,3.53,0,0,0,2202.725,26.7Zm-9.9-16.445a3.486,3.486,0,0,0-1.705-1.711A1.585,1.585,0,0,1,2192.821,10.256Z" transform="translate(-2185.869 0.002)" fill="#fff"/>
</svg>
